Normalized EMG Linear Envelopes
nRows=38
nColumns=17

endheader
time	        VM	        VL	        RF	       GRA	        TA	   ADDLONG	   SEMIMEM	      BFLH	        GM	        GL	       TFL	   GLUTMAX	   GLUTMED	      PIRI	    OBTINT	        QF	
2.294	  0.506081	  0.333351	  0.055076	  0.213160	  0.307326	  0.047733	  0.550399	  0.763301	  0.318666	  0.119986	  0.025270	  0.439853	  0.250397	  0.398001	  0.649252	  1.002881	
2.2945	  0.508680	  0.335982	  0.055519	  0.212236	  0.304990	  0.047703	  0.544497	  0.757965	  0.319386	  0.121195	  0.025573	  0.442205	  0.249260	  0.399377	  0.652717	  1.007159	
2.295	  0.511197	  0.338602	  0.055960	  0.211317	  0.302600	  0.047672	  0.538642	  0.752586	  0.320148	  0.122431	  0.025878	  0.444512	  0.248155	  0.400721	  0.656181	  1.011358	
2.2955	  0.513632	  0.341213	  0.056398	  0.210405	  0.300158	  0.047641	  0.532838	  0.747167	  0.320954	  0.123695	  0.026185	  0.446773	  0.247083	  0.402035	  0.659646	  1.015476	
2.296	  0.515984	  0.343814	  0.056833	  0.209501	  0.297667	  0.047609	  0.527090	  0.741712	  0.321805	  0.124988	  0.026494	  0.448987	  0.246044	  0.403317	  0.663114	  1.019514	
2.2965	  0.518252	  0.346404	  0.057267	  0.208604	  0.295129	  0.047577	  0.521400	  0.736225	  0.322702	  0.126311	  0.026804	  0.451153	  0.245036	  0.404566	  0.666587	  1.023469	
2.297	  0.520434	  0.348985	  0.057698	  0.207716	  0.292547	  0.047545	  0.515772	  0.730710	  0.323645	  0.127663	  0.027115	  0.453270	  0.244061	  0.405783	  0.670064	  1.027343	
2.2975	  0.522530	  0.351556	  0.058127	  0.206837	  0.289923	  0.047512	  0.510211	  0.725170	  0.324637	  0.129046	  0.027428	  0.455337	  0.243119	  0.406967	  0.673547	  1.031132	
2.298	  0.524540	  0.354117	  0.058555	  0.205967	  0.287261	  0.047479	  0.504720	  0.719610	  0.325677	  0.130459	  0.027742	  0.457354	  0.242209	  0.408119	  0.677037	  1.034837	
2.2985	  0.526461	  0.356668	  0.058980	  0.205107	  0.284562	  0.047445	  0.499302	  0.714034	  0.326766	  0.131903	  0.028058	  0.459320	  0.241331	  0.409238	  0.680535	  1.038456	
2.299	  0.528295	  0.359210	  0.059404	  0.204257	  0.281829	  0.047411	  0.493959	  0.708444	  0.327905	  0.133379	  0.028374	  0.461232	  0.240485	  0.410325	  0.684040	  1.041989	
2.2995	  0.530042	  0.361741	  0.059826	  0.203418	  0.279065	  0.047377	  0.488696	  0.702845	  0.329096	  0.134887	  0.028692	  0.463091	  0.239672	  0.411379	  0.687553	  1.045434	
2.3	  0.531702	  0.364263	  0.060246	  0.202591	  0.276273	  0.047342	  0.483514	  0.697239	  0.330339	  0.136426	  0.029010	  0.464895	  0.238891	  0.412401	  0.691075	  1.048790	
2.3005	  0.533277	  0.366775	  0.060665	  0.201775	  0.273454	  0.047307	  0.478417	  0.691630	  0.331634	  0.137999	  0.029329	  0.466642	  0.238141	  0.413390	  0.694605	  1.052056	
2.301	  0.534766	  0.369277	  0.061083	  0.200972	  0.270610	  0.047271	  0.473406	  0.686020	  0.332984	  0.139604	  0.029650	  0.468331	  0.237424	  0.414346	  0.698143	  1.055231	
2.3015	  0.536170	  0.371769	  0.061499	  0.200181	  0.267745	  0.047236	  0.468485	  0.680414	  0.334389	  0.141243	  0.029970	  0.469961	  0.236738	  0.415269	  0.701690	  1.058312	
2.302	  0.537490	  0.374251	  0.061914	  0.199404	  0.264860	  0.047201	  0.463656	  0.674814	  0.335849	  0.142916	  0.030292	  0.471531	  0.236083	  0.416158	  0.705244	  1.061299	
2.3025	  0.538728	  0.376722	  0.062328	  0.198641	  0.261958	  0.047166	  0.458921	  0.669224	  0.337366	  0.144622	  0.030613	  0.473039	  0.235460	  0.417013	  0.708806	  1.064188	
2.303	  0.539882	  0.379182	  0.062741	  0.197893	  0.259039	  0.047132	  0.454281	  0.663646	  0.338941	  0.146363	  0.030936	  0.474484	  0.234868	  0.417833	  0.712375	  1.066979	
2.3035	  0.540955	  0.381631	  0.063153	  0.197159	  0.256108	  0.047098	  0.449739	  0.658085	  0.340574	  0.148138	  0.031258	  0.475865	  0.234307	  0.418617	  0.715950	  1.069669	
2.304	  0.541947	  0.384069	  0.063563	  0.196440	  0.253164	  0.047064	  0.445297	  0.652544	  0.342266	  0.149949	  0.031581	  0.477181	  0.233777	  0.419364	  0.719531	  1.072256	
2.3045	  0.542859	  0.386495	  0.063973	  0.195737	  0.250211	  0.047032	  0.440955	  0.647025	  0.344016	  0.151794	  0.031903	  0.478432	  0.233279	  0.420073	  0.723116	  1.074738	
2.305	  0.543694	  0.388909	  0.064382	  0.195049	  0.247249	  0.047000	  0.436716	  0.641532	  0.345827	  0.153674	  0.032226	  0.479617	  0.232811	  0.420743	  0.726705	  1.077112	
2.3055	  0.544451	  0.391310	  0.064790	  0.194378	  0.244282	  0.046969	  0.432581	  0.636069	  0.347697	  0.155590	  0.032548	  0.480734	  0.232375	  0.421374	  0.730295	  1.079376	
2.306	  0.545133	  0.393699	  0.065197	  0.193723	  0.241310	  0.046940	  0.428552	  0.630638	  0.349627	  0.157541	  0.032870	  0.481784	  0.231969	  0.421963	  0.733887	  1.081527	
2.3065	  0.545742	  0.396074	  0.065603	  0.193084	  0.238336	  0.046912	  0.424628	  0.625242	  0.351617	  0.159528	  0.033192	  0.482766	  0.231596	  0.422510	  0.737478	  1.083562	
2.307	  0.546280	  0.398436	  0.066008	  0.192463	  0.235361	  0.046886	  0.420812	  0.619885	  0.353667	  0.161551	  0.033513	  0.483679	  0.231253	  0.423013	  0.741068	  1.085477	
2.3075	  0.546748	  0.400785	  0.066413	  0.191859	  0.232388	  0.046862	  0.417104	  0.614570	  0.355778	  0.163609	  0.033834	  0.484523	  0.230942	  0.423471	  0.744655	  1.087269	
2.308	  0.547148	  0.403120	  0.066817	  0.191273	  0.229418	  0.046840	  0.413506	  0.609298	  0.357948	  0.165702	  0.034154	  0.485298	  0.230662	  0.423884	  0.748240	  1.088934	
2.3085	  0.547482	  0.405440	  0.067220	  0.190704	  0.226452	  0.046820	  0.410018	  0.604073	  0.360178	  0.167831	  0.034473	  0.486002	  0.230413	  0.424249	  0.751821	  1.090469	
2.309	  0.547753	  0.407746	  0.067623	  0.190153	  0.223493	  0.046802	  0.406641	  0.598897	  0.362467	  0.169996	  0.034791	  0.486634	  0.230196	  0.424567	  0.755397	  1.091870	
2.3095	  0.547961	  0.410036	  0.068025	  0.189621	  0.220543	  0.046787	  0.403375	  0.593772	  0.364815	  0.172195	  0.035109	  0.487194	  0.230009	  0.424836	  0.758967	  1.093135	
2.31	  0.548109	  0.412310	  0.068426	  0.189107	  0.217602	  0.046775	  0.400222	  0.588701	  0.367222	  0.174430	  0.035426	  0.487681	  0.229854	  0.425055	  0.762532	  1.094260	
2.3105	  0.548199	  0.414567	  0.068827	  0.188612	  0.214674	  0.046765	  0.397181	  0.583685	  0.369686	  0.176699	  0.035742	  0.488094	  0.229730	  0.425225	  0.766090	  1.095245	
2.311	  0.548233	  0.416806	  0.069228	  0.188135	  0.211758	  0.046758	  0.394253	  0.578725	  0.372208	  0.179002	  0.036057	  0.488431	  0.229637	  0.425344	  0.769640	  1.096085	
2.3115	  0.548212	  0.419027	  0.069628	  0.187678	  0.208858	  0.046755	  0.391438	  0.573825	  0.374787	  0.181340	  0.036371	  0.488690	  0.229574	  0.425411	  0.773182	  1.096779	
2.312	  0.548138	  0.421228	  0.070027	  0.187240	  0.205973	  0.046754	  0.388736	  0.568984	  0.377422	  0.183711	  0.036684	  0.488871	  0.229541	  0.425427	  0.776714	  1.097325	
2.3125	  0.548012	  0.423409	  0.070427	  0.186821	  0.203107	  0.046757	  0.386147	  0.564204	  0.380113	  0.186115	  0.036996	  0.488971	  0.229537	  0.425389	  0.780235	  1.097721	
